<?xml version="1.0" encoding="iso-8859-1"?>
<!-- Uploaded to: SVG Repo, www.svgrepo.com, Generator: SVG Repo Mixer Tools -->
<svg version="1.1" id="Layer_1" xmlns="http://www.w3.org/2000/svg" xmlns:xlink="http://www.w3.org/1999/xlink" 
	 viewBox="0 0 512 512" xml:space="preserve">
<polygon style="fill:#891C00;" points="456.83,450.152 351.589,450.152 401.432,281.348 456.83,281.348 "/>
<g>
	<path style="fill:#FF5023;" d="M388.723,267.659c0,0-124.612-39.041-124.612-195.679h224.717v196.186L388.723,267.659z"/>
	<path style="fill:#FF5023;" d="M123.277,267.659c0,0,31.153-9.76,62.306-39.101c0,0,29.953-33.325,37.374-48.858
		c13.414-28.074,24.932-62.735,24.932-107.721H46.635v195.679H123.277z"/>
</g>
<polygon style="fill:#AB2300;" points="156.716,457.756 51.577,457.756 51.577,294.888 118.26,294.888 "/>
<polygon style="fill:#891C00;" points="54.246,32.95 7.604,32.95 7.604,71.981 504.396,71.981 504.396,32.95 139.409,32.95 "/>
<g>
	<polygon style="fill:#FF5023;" points="123.277,295.034 175.398,449.141 142.57,449.141 90.45,295.034 	"/>
	<polygon style="fill:#FF5023;" points="58.447,295.034 110.569,449.141 46.635,449.141 46.635,295.034 	"/>
</g>
<rect x="388.725" y="267.659" style="fill:#FFCD00;" width="76.638" height="27.374"/>
<g>
	<polygon style="fill:#FF5023;" points="421.55,295.034 369.43,449.141 336.602,449.141 388.723,295.034 	"/>
	<polygon style="fill:#FF5023;" points="453.553,295.034 401.432,449.141 465.365,449.141 465.365,295.034 	"/>
</g>
<rect x="7.604" y="449.141" style="fill:#FFE477;" width="496.792" height="29.909"/>
<g>
	<rect x="7.604" y="71.981" style="fill:#891C00;" width="39.031" height="377.156"/>
	<rect x="465.362" y="71.981" style="fill:#891C00;" width="39.031" height="377.156"/>
</g>
<rect x="46.635" y="267.659" style="fill:#FFCD00;" width="76.638" height="27.374"/>
<g>
	<rect x="46.635" y="281.347" style="fill:#CCA400;" width="76.638" height="13.691"/>
	<rect x="388.725" y="281.347" style="fill:#CCA400;" width="76.638" height="13.691"/>
</g>
<path d="M504.396,25.347H139.409c-4.199,0-7.604,3.405-7.604,7.604s3.405,7.604,7.604,7.604h357.383v23.823h-31.427H46.635H15.208
	V40.554h39.037c4.199,0,7.604-3.405,7.604-7.604s-3.405-7.604-7.604-7.604H7.604C3.405,25.347,0,28.751,0,32.95v39.031v377.159
	v29.909c0,4.199,3.405,7.604,7.604,7.604h496.792c4.2,0,7.604-3.405,7.604-7.604v-29.909V71.981V32.95
	C512,28.751,508.596,25.347,504.396,25.347z M496.792,79.585v361.952h-23.823V295.034v-27.374v-0.016c0-0.016,0-0.033,0-0.05V79.585
	H496.792z M412.031,441.537l45.73-135.214v135.214H412.031z M380.029,441.537l46.977-138.899h15.948l-46.977,138.899H380.029z
	 M180.854,441.537l-49.972-147.753v-20.811c10.559-4.18,35.169-15.571,59.915-38.878c3.057-2.879,3.202-7.691,0.322-10.749
	c-2.879-3.057-7.691-3.201-10.749-0.322c-26.333,24.8-52.918,35.097-58.357,37.031h-12.547c8.243-3.744,16.689-8.389,25.055-14.152
	c22.218-15.307,39.836-35.89,52.366-61.175c14.364-28.988,22.054-64.333,22.898-105.142h30.394
	c-0.983,36.16-9.018,68.606-23.929,96.536c-1.978,3.705-0.578,8.312,3.127,10.289c1.141,0.609,2.366,0.897,3.575,0.897
	c2.717,0,5.345-1.46,6.715-4.024c16.09-30.14,24.731-64.995,25.728-103.698h1.219c0.874,33.848,7.602,64.834,20.047,92.201
	c10.748,23.63,25.734,44.594,44.545,62.31c24.747,23.307,49.356,34.698,59.915,38.878v20.811l-49.972,147.753H180.854z
	 M116.023,441.537L69.046,302.638h15.948l46.977,138.899H116.023z M78.586,79.585c0.952,18.997,1.136,74.476-24.348,121.492V79.585
	H78.586z M115.21,79.585c0.715,10.863,1.27,33.837-3.856,59.603c-8.36,42.016-27.557,72.897-57.115,92.009v-2.034
	c25.259-33.47,34.569-74.097,37.907-102.559c2.398-20.446,2.171-37.427,1.695-47.018h21.368V79.585z M115.673,275.263v12.166H90.266
	c-0.001,0-0.002,0-0.003,0H58.447h-4.209v-12.166H115.673z M99.321,220.986c-17.288,16.399-34.759,24.987-45.082,29.043v-1.122
	c37.353-20.641,62.219-57.439,72.031-106.75c5.329-26.782,4.946-50.437,4.192-62.57h23.042
	C152.117,140.622,133.913,188.173,99.321,220.986z M168.719,79.585h25.862c-2.628,124.468-69.807,163.337-115.497,175.337
	c9.195-5.274,19.61-12.493,30.039-22.276c17.406-16.327,31.26-36.445,41.179-59.793C161.757,145.89,167.939,114.542,168.719,79.585z
	 M54.239,306.324L99.97,441.537H54.239V306.324z M101.049,302.638h16.774L164.8,441.537h-16.772L101.049,302.638z M418.159,79.585
	c-0.475,9.591-0.703,26.572,1.696,47.018c3.339,28.463,12.647,69.09,37.907,102.559v2.034
	c-29.456-19.046-48.624-49.788-57.032-91.592c-5.2-25.851-4.647-49.073-3.933-60.02h21.361V79.585z M457.761,79.585v121.492
	c-25.483-47.016-25.3-102.495-24.348-121.492H457.761z M421.738,287.43c-0.003,0-0.007,0-0.01,0h-25.401v-12.166h61.435v12.166
	h-4.209H421.738z M385.732,142.156c9.812,49.311,34.677,86.109,72.031,106.75v1.121c-10.323-4.056-27.793-12.642-45.082-29.042
	c-34.592-32.814-52.796-80.364-54.183-141.401h23.042C380.785,91.719,380.402,115.374,385.732,142.156z M361.699,172.854
	c9.919,23.348,23.773,43.465,41.179,59.793c10.429,9.782,20.844,17.001,30.039,22.276c-45.69-12-112.869-50.868-115.497-175.337
	h25.863C344.061,114.542,350.245,145.89,361.699,172.854z M325.114,184.728c12.529,25.286,30.148,45.869,52.365,61.175
	c8.366,5.764,16.812,10.409,25.055,14.152h-12.547c-5.474-1.948-32.363-12.364-58.863-37.51
	c-37.809-35.878-57.729-83.95-59.297-142.962h30.387C303.06,120.395,310.75,155.739,325.114,184.728z M394.178,302.638h16.773
	l-46.977,138.899h-16.773L394.178,302.638z M39.031,79.585v188.008c0,0.016,0,0.033,0,0.05v0.016v27.374v146.503H15.208V79.585
	H39.031z M496.792,471.446H15.208v-14.701h31.427h63.934h32.003h32.827h161.204h32.828h32.002h63.934h31.427V471.446z"/>
</svg>