<?xml version="1.0" encoding="iso-8859-1"?>
<!-- Uploaded to: SVG Repo, www.svgrepo.com, Generator: SVG Repo Mixer Tools -->
<svg height="800px" width="800px" version="1.1" id="Layer_1" xmlns="http://www.w3.org/2000/svg" xmlns:xlink="http://www.w3.org/1999/xlink" 
	 viewBox="0 0 511.999 511.999" xml:space="preserve">
<path style="fill:#C6C3CB;" d="M193.347,245.86h55.495h41.627h122.679v162.642c0,9.847-7.793,17.829-17.405,17.829H81.785
	c-12.972,0-23.488-10.772-23.488-24.06V247.938L193.347,245.86z"/>
<path style="fill:#57545C;" d="M359.414,504.395H102.907v-38.016c0-22.117,17.93-40.048,40.048-40.048h216.459V504.395z"/>
<polygon style="fill:#494949;" points="336.295,426.331 336.295,481.276 102.907,481.276 102.907,504.395 359.414,504.395 
	359.414,426.331 "/>
<g>
	<path style="fill:#C6C3CB;" d="M196.182,461.309h-44.779c-4.199,0-7.604-3.405-7.604-7.604s3.405-7.604,7.604-7.604h44.779
		c4.199,0,7.604,3.405,7.604,7.604S200.382,461.309,196.182,461.309z"/>
	<path style="fill:#C6C3CB;" d="M196.182,484.29h-44.779c-4.199,0-7.604-3.405-7.604-7.604c0-4.199,3.405-7.604,7.604-7.604h44.779
		c4.199,0,7.604,3.405,7.604,7.604C203.786,480.886,200.382,484.29,196.182,484.29z"/>
	<polygon style="fill:#C6C3CB;" points="501.292,403.012 446.944,372.596 446.944,291.487 501.292,261.071 	"/>
</g>
<path style="fill:#57545C;" d="M430.047,398.281L430.047,398.281c-9.294,0-16.898-7.604-16.898-16.898v-98.682
	c0-9.294,7.604-16.898,16.898-16.898l0,0c9.294,0,16.898,7.604,16.898,16.898v98.682
	C446.944,390.677,439.34,398.281,430.047,398.281z"/>
<path style="opacity:0.34;fill:#2F2D30;enable-background:new    ;" d="M446.944,347.614c0,9.294-7.604,16.898-16.898,16.898l0,0
	c-9.294,0-16.898-7.604-16.898-16.898v33.77c0,9.294,7.604,16.898,16.898,16.898l0,0c9.294,0,16.898-7.604,16.898-16.898v-8.787
	l54.348,30.416v-33.77l-54.348-30.416V347.614z"/>
<g>
	<polygon style="fill:#3C66B1;" points="183.926,292.163 223.894,292.163 223.894,381.452 113.55,381.452 113.55,292.163 
		143.371,292.163 	"/>
	<circle style="fill:#3C66B1;" cx="264.11" cy="332.039" r="15.269"/>
	<circle style="fill:#3C66B1;" cx="315.655" cy="332.039" r="15.269"/>
	<circle style="fill:#3C66B1;" cx="367.209" cy="332.039" r="15.269"/>
</g>
<path style="fill:#77757E;" d="M78.239,47.761c14.096-6.5,29.957-9.581,46.466-9.581c64.673,0,117.101,52.428,117.101,117.101
	s-52.428,117.101-117.101,117.101S7.604,219.954,7.604,155.281c0-32.721,13.42-62.308,35.057-83.555
	C42.661,71.726,57.118,57.5,78.239,47.761z"/>
<circle style="fill:#57545C;" cx="124.4" cy="155.282" r="76.161"/>
<path style="fill:#3C66B1;" d="M136.772,38.795c-3.967-0.407-7.993-0.615-12.067-0.615c-4.22,0-8.396,0.204-12.512,0.612V142.38
	H8.314c-0.464,4.237-0.71,8.541-0.71,12.901c0,3.942,0.198,7.837,0.579,11.679h104.01v104.756c4.111,0.437,8.285,0.666,12.512,0.666
	c4.075,0,8.1-0.21,12.067-0.615V166.96h104.455c0.38-3.842,0.579-7.737,0.579-11.679c0-4.361-0.246-8.663-0.711-12.901H136.772
	V38.795z"/>
<circle style="fill:#2F2D30;" cx="124.704" cy="155.282" r="38.942"/>
<path style="fill:#77757E;" d="M341.622,21.239c14.096-6.5,29.957-9.581,46.466-9.581c64.673,0,117.101,52.428,117.101,117.101
	S452.761,245.86,388.088,245.86s-117.101-52.428-117.101-117.101c0-32.721,13.42-62.308,35.057-83.555
	C306.044,45.204,320.501,30.979,341.622,21.239z"/>
<circle style="fill:#57545C;" cx="387.791" cy="128.759" r="76.161"/>
<path style="fill:#3C66B1;" d="M400.155,12.274c-3.967-0.407-7.993-0.615-12.067-0.615c-4.22,0-8.396,0.204-12.512,0.612v103.587
	H271.697c-0.464,4.237-0.71,8.541-0.71,12.901c0,3.942,0.198,7.837,0.579,11.679h104.01v104.756
	c4.111,0.437,8.285,0.666,12.512,0.666c4.075,0,8.1-0.21,12.067-0.615V140.438H504.61c0.38-3.842,0.579-7.737,0.579-11.679
	c0-4.361-0.246-8.663-0.711-12.901H400.155V12.274z"/>
<circle style="fill:#2F2D30;" cx="388.085" cy="128.759" r="38.942"/>
<path d="M151.403,461.309h44.779c4.199,0,7.604-3.405,7.604-7.604s-3.405-7.604-7.604-7.604h-44.779
	c-4.199,0-7.604,3.405-7.604,7.604S147.204,461.309,151.403,461.309z"/>
<path d="M505.136,254.513c-2.327-1.366-5.205-1.394-7.559-0.076l-43.361,24.267c-1.914-11.615-12.021-20.504-24.169-20.504
	c-3.289,0-6.426,0.656-9.294,1.836v-9.88c0-1.838-0.652-3.524-1.738-4.839c53.449-14.068,92.984-62.808,92.984-120.611
	C511.999,55.943,456.056,0,387.294,0c-25.522,0-50.058,7.658-70.959,22.144c-3.451,2.392-4.31,7.129-1.918,10.582
	c2.391,3.451,7.13,4.311,10.582,1.918c13.153-9.117,27.955-15.133,43.537-17.819V43.08c-31.15,7.157-55.711,31.718-62.868,62.868
	h-26.289c3.087-18.075,10.659-34.956,22.352-49.577c2.623-3.28,2.091-8.065-1.189-10.688c-3.28-2.623-8.064-2.09-10.688,1.189
	c-17.581,21.985-27.265,49.625-27.265,77.832c0,54.483,35.124,100.911,83.914,117.846h-56.033c-4.2,0-7.604,3.405-7.604,7.604
	s3.404,7.604,7.604,7.604h115.075v24.943v98.682v27.544c0,5.404-4.397,9.801-9.801,9.801h-36.33H142.954h-61.17
	c-8.759,0-15.884-7.125-15.884-15.884V265.223c17.53,9.414,37.552,14.762,58.804,14.762c26.351,0,50.815-8.222,70.973-22.227h53.164
	c4.199,0,7.604-3.405,7.604-7.604s-3.405-7.604-7.604-7.604h-35.151c22.079-22.509,35.718-53.324,35.718-87.27
	c0-68.762-55.943-124.705-124.705-124.705c-17.186,0-33.837,3.434-49.487,10.207c-3.855,1.669-5.627,6.145-3.959,9.999
	c1.669,3.855,6.144,5.628,9.999,3.959c7.959-3.444,16.216-5.898,24.69-7.358v26.203c-31.089,7.021-55.669,31.366-63.029,62.326
	H16.904c3.936-22.213,14.632-42.603,31.085-58.76c2.997-2.942,3.041-7.756,0.097-10.753c-2.941-2.997-7.756-3.041-10.753-0.097
	C13.259,89.942,0,121.542,0,155.281c0,41.074,19.964,77.567,50.693,100.302v147.26c0,17.144,13.948,31.092,31.092,31.092h26.313
	c-7.929,8.513-12.795,19.918-12.795,32.444v38.016c0,4.199,3.405,7.604,7.604,7.604h256.507c4.2,0,7.604-3.405,7.604-7.604v-70.46
	h28.726c13.791,0,25.009-11.218,25.009-25.009v-4.878c2.868,1.18,6.005,1.836,9.294,1.836c12.148,0,22.255-8.89,24.169-20.504
	l43.361,24.267c1.155,0.646,2.434,0.968,3.714,0.968c1.33,0,2.659-0.349,3.846-1.044c2.329-1.365,3.758-3.861,3.758-6.56V261.07
	C508.895,258.373,507.465,255.876,505.136,254.513z M105.948,221.299c-23.093-6.464-41.291-24.734-47.649-47.87h23.545
	c4.628,10.891,13.295,19.66,24.106,24.44v23.43H105.948z M128.254,264.714c-1.179,0.038-2.361,0.064-3.55,0.064
	c-1.188,0-2.37-0.026-3.55-0.064v-25.747c1.079,0.042,2.159,0.082,3.247,0.082c1.292,0,2.574-0.04,3.853-0.097v25.762H128.254z
	 M128.254,223.728c-1.275,0.071-2.559,0.115-3.853,0.115c-1.089,0-2.171-0.031-3.247-0.082v-22.081
	c1.173,0.089,2.354,0.149,3.55,0.149s2.376-0.06,3.55-0.149v22.048H128.254z M143.462,263.164v-26.328
	c31.211-7.294,55.755-32.069,62.706-63.409h26.521C225.042,219.089,189.04,255.263,143.462,263.164z M171.057,151.119h21.769
	c0.083,1.378,0.138,2.763,0.138,4.161c0,0.985-0.033,1.963-0.075,2.938h-21.739c0.061-0.972,0.102-1.951,0.102-2.938
	C171.252,153.878,171.179,152.491,171.057,151.119z M190.508,173.427c-6.303,22.934-24.239,41.086-47.045,47.699v-23.259
	c10.81-4.78,19.477-13.549,24.106-24.44H190.508z M234.202,155.281c0,0.982-0.014,1.962-0.041,2.938h-26.064
	c0.033-0.977,0.075-1.954,0.075-2.938c0-1.395-0.038-2.782-0.105-4.161h26.049C234.167,152.501,234.202,153.887,234.202,155.281z
	 M143.462,47.397c45.171,7.831,80.943,43.429,89.023,88.514h-26.6c-7.312-30.76-31.62-54.988-62.423-62.186L143.462,47.397
	L143.462,47.397z M143.462,89.436c22.399,6.495,40.1,24.121,46.697,46.476h-23.145c-4.744-10.322-13.151-18.618-23.552-23.217
	L143.462,89.436L143.462,89.436z M121.155,45.846c1.18-0.038,2.363-0.063,3.55-0.063c1.188,0,2.37,0.026,3.55,0.064v25.762
	c-1.277-0.058-2.561-0.097-3.853-0.097c-1.089,0-2.169,0.042-3.247,0.082V45.846H121.155z M121.155,86.802
	c1.077-0.051,2.159-0.082,3.247-0.082c1.294,0,2.576,0.044,3.853,0.115v22.048c-1.173-0.089-2.354-0.149-3.55-0.149
	c-1.195,0-2.376,0.06-3.55,0.149V86.802H121.155z M124.705,123.942c17.28,0,31.339,14.059,31.339,31.339
	s-14.059,31.339-31.339,31.339s-31.339-14.059-31.339-31.339S107.425,123.942,124.705,123.942z M105.948,89.263v23.431
	c-10.4,4.599-18.807,12.895-23.552,23.217H58.645C65.301,113.355,83.262,95.613,105.948,89.263z M55.979,151.119h22.374
	c-0.123,1.372-0.196,2.758-0.196,4.161c0,0.987,0.042,1.966,0.102,2.938H55.915c-0.042-0.975-0.075-1.954-0.075-2.938
	C55.841,153.883,55.896,152.497,55.979,151.119z M15.208,155.281c0-1.392,0.034-2.778,0.085-4.161h25.446
	c-0.068,1.379-0.105,2.766-0.105,4.161c0,0.985,0.041,1.961,0.075,2.938h-25.46C15.222,157.243,15.208,156.263,15.208,155.281z
	 M16.72,173.427h25.915c6.996,31.541,31.814,56.437,63.312,63.549v26.188C60.37,255.263,24.368,219.089,16.72,173.427z
	 M351.81,496.791H110.511v-30.413c0-17.89,14.554-32.444,32.444-32.444H351.81V496.791z M496.79,124.704
	c0,1.188-0.026,2.37-0.064,3.55h-25.754c0.05-1.178,0.09-2.359,0.09-3.55s-0.041-2.371-0.09-3.55h25.754
	C496.765,122.334,496.79,123.516,496.79,124.704z M406.05,16.821c45.374,7.866,81.26,43.752,89.126,89.126h-26.258
	c-7.157-31.151-31.718-55.711-62.869-62.868V16.821H406.05z M433.69,128.253c0.089-1.173,0.149-2.354,0.149-3.55
	s-0.06-2.376-0.149-3.55h22.073c0.06,1.176,0.091,2.359,0.091,3.55s-0.031,2.374-0.091,3.55H433.69z M453.224,143.461
	c-6.482,22.746-24.428,40.692-47.174,47.174V167.29c10.605-4.69,19.139-13.223,23.828-23.829L453.224,143.461L453.224,143.461z
	 M406.05,58.773c22.746,6.481,40.692,24.428,47.174,47.174h-23.346c-4.69-10.605-13.223-19.139-23.828-23.829L406.05,58.773
	L406.05,58.773z M383.742,15.274c1.181-0.038,2.364-0.067,3.551-0.067c1.188,0,2.37,0.025,3.55,0.064v25.754
	c-1.178-0.05-2.359-0.09-3.55-0.09s-2.371,0.041-3.551,0.09V15.274z M383.742,56.234c1.176-0.06,2.359-0.091,3.551-0.091
	c1.19,0,2.373,0.031,3.55,0.091v22.072c-1.173-0.089-2.354-0.149-3.55-0.149s-2.378,0.06-3.551,0.149V56.234z M368.535,58.773
	v23.345c-10.605,4.69-19.139,13.223-23.828,23.828h-23.345C327.843,83.201,345.79,65.254,368.535,58.773z M318.823,121.154h22.072
	c-0.089,1.173-0.149,2.354-0.149,3.55s0.06,2.376,0.149,3.55h-22.072c-0.06-1.176-0.091-2.359-0.091-3.55
	S318.763,122.329,318.823,121.154z M277.796,124.704c0-1.188,0.036-2.369,0.073-3.55h25.745c-0.05,1.178-0.09,2.359-0.09,3.55
	s0.041,2.371,0.09,3.55H277.86C277.822,127.074,277.796,125.892,277.796,124.704z M368.535,232.587
	c-45.373-7.867-81.259-43.752-89.125-89.126h26.258c7.157,31.15,31.718,55.711,62.868,62.868v26.258H368.535z M368.535,190.635
	c-22.745-6.482-40.691-24.428-47.173-47.173h23.345c4.69,10.605,13.223,19.139,23.828,23.828V190.635z M390.843,234.137
	c-1.179,0.038-2.361,0.064-3.55,0.064s-2.371-0.025-3.551-0.064v-25.754c1.179,0.05,2.36,0.09,3.551,0.09s2.371-0.041,3.55-0.09
	V234.137z M390.843,193.174c-1.176,0.06-2.359,0.091-3.55,0.091c-1.191,0-2.374-0.031-3.551-0.091v-22.072
	c1.173,0.089,2.355,0.149,3.551,0.149c1.195,0,2.376-0.06,3.55-0.149V193.174z M387.293,156.043
	c-17.281,0-31.339-14.059-31.339-31.339s14.058-31.339,31.339-31.339c17.28,0,31.338,14.059,31.338,31.339
	S404.573,156.043,387.293,156.043z M406.05,232.587V206.33c31.15-7.157,55.711-31.718,62.869-62.868h26.258
	C487.31,188.836,451.425,224.721,406.05,232.587z M439.34,291.487v81.109v8.787c0,5.125-4.169,9.294-9.293,9.294
	c-5.125,0-9.294-4.169-9.294-9.294v-98.682c0-5.125,4.169-9.294,9.294-9.294c5.124,0,9.293,4.169,9.293,9.294L439.34,291.487
	L439.34,291.487z M493.687,390.043l-39.139-21.904v-72.192l39.139-21.904V390.043z"/>
<path d="M143.371,299.767c4.199,0,7.604-3.405,7.604-7.604c0-4.199-3.405-7.604-7.604-7.604h-29.82
	c-4.199,0-7.604,3.405-7.604,7.604v89.289c0,4.199,3.405,7.604,7.604,7.604h110.344c4.199,0,7.604-3.405,7.604-7.604v-89.289
	c0-4.199-3.405-7.604-7.604-7.604h-39.968c-4.199,0-7.604,3.405-7.604,7.604c0,4.199,3.405,7.604,7.604,7.604h32.364v74.081h-95.136
	v-74.081H143.371z"/>
<path d="M241.238,332.042c0,12.61,10.259,22.871,22.871,22.871c12.61,0,22.87-10.259,22.87-22.871s-10.259-22.871-22.87-22.871
	C251.498,309.172,241.238,319.431,241.238,332.042z M264.109,324.38c4.225,0,7.662,3.437,7.662,7.663s-3.437,7.663-7.662,7.663
	c-4.225,0-7.663-3.437-7.663-7.663S259.884,324.38,264.109,324.38z"/>
<path d="M338.527,332.042c0-12.61-10.259-22.871-22.87-22.871c-12.61,0-22.871,10.259-22.871,22.871s10.259,22.871,22.871,22.871
	C328.268,354.912,338.527,344.653,338.527,332.042z M307.996,332.042c0-4.225,3.438-7.663,7.663-7.663
	c4.225,0,7.662,3.437,7.662,7.663s-3.437,7.663-7.662,7.663C311.434,339.704,307.996,336.267,307.996,332.042z"/>
<path d="M390.078,332.042c0-12.61-10.259-22.871-22.871-22.871c-12.611,0-22.871,10.259-22.871,22.871s10.259,22.871,22.871,22.871
	C379.819,354.912,390.078,344.653,390.078,332.042z M359.546,332.042c0-4.225,3.438-7.663,7.663-7.663s7.663,3.437,7.663,7.663
	s-3.438,7.663-7.663,7.663S359.546,336.267,359.546,332.042z"/>
<path d="M151.403,484.29h44.779c4.199,0,7.604-3.405,7.604-7.604c0-4.199-3.405-7.604-7.604-7.604h-44.779
	c-4.199,0-7.604,3.405-7.604,7.604C143.799,480.886,147.204,484.29,151.403,484.29z"/>
</svg>