<?xml version="1.0" encoding="iso-8859-1"?>
<!-- Uploaded to: SVG Repo, www.svgrepo.com, Generator: SVG Repo Mixer Tools -->
<svg height="800px" width="800px" version="1.1" id="Layer_1" xmlns="http://www.w3.org/2000/svg" xmlns:xlink="http://www.w3.org/1999/xlink" 
	 viewBox="0 0 511.999 511.999" xml:space="preserve">
<path style="fill:#57545C;" d="M162.142,98.589h287.485c8.975,0,16.251,7.275,16.251,16.251v244.066H46.123V114.84
	c0-8.975,7.275-16.251,16.251-16.251h35.908H162.142z"/>
<path style="fill:#3E3B43;" d="M466.553,413.41H45.446c-20.894,0-37.831-16.937-37.831-37.831v-16.673h496.767v16.673
	C504.383,396.472,487.446,413.41,466.553,413.41z"/>
<polygon style="fill:#D7D5D9;" points="328.567,328.535 80.341,328.535 80.341,130.047 430.679,130.047 430.679,328.535 
	389.258,328.535 "/>
<circle style="fill:#FF5023;" cx="255.997" cy="223.987" r="66.162"/>
<polygon style="fill:#FFFFFF;" points="240.265,195.204 283.075,223.982 240.265,252.759 "/>
<path style="opacity:0.31;fill:#2F2D30;enable-background:new    ;" d="M465.869,358.905V114.84c0-8.975-7.275-16.251-16.251-16.251
	h-68.182c8.974,0,16.251,7.275,16.251,16.251v244.066h38.506v16.673c0,20.893-16.937,37.831-37.831,37.831h68.183
	c20.893,0,37.831-16.937,37.831-37.831v-16.673h-38.507V358.905z"/>
<polygon style="opacity:0.29;fill:#FFFFFF;enable-background:new    ;" points="230.175,328.535 141.802,328.535 264.818,130.047 
	353.191,130.047 "/>
<path d="M504.383,351.29h-30.89V114.84c0-13.16-10.707-23.867-23.867-23.867H162.142c-4.206,0-7.617,3.409-7.617,7.617
	s3.41,7.617,7.617,7.617h287.484c4.761,0,8.634,3.873,8.634,8.634v236.45H53.739V114.84c0-4.761,3.873-8.634,8.634-8.634h35.907
	c4.206,0,7.617-3.409,7.617-7.617s-3.41-7.617-7.617-7.617H62.373c-13.16,0-23.867,10.707-23.867,23.867v236.45H7.617
	C3.41,351.29,0,354.699,0,358.906v16.673c0,25.06,20.387,45.447,45.446,45.447h421.106c25.059,0,45.446-20.387,45.446-45.447
	v-16.673C512,354.699,508.59,351.29,504.383,351.29z M496.767,375.579c0,16.66-13.554,30.214-30.213,30.214H45.446
	c-16.659,0-30.213-13.554-30.213-30.214v-9.057h30.89h419.755h30.89V375.579z"/>
<path d="M389.257,320.92c-4.207,0-7.617,3.409-7.617,7.617c0,4.207,3.409,7.617,7.617,7.617h41.422c4.207,0,7.617-3.409,7.617-7.617
	V130.047c0-4.207-3.409-7.617-7.617-7.617H80.341c-4.206,0-7.617,3.409-7.617,7.617v198.489c0,4.207,3.41,7.617,7.617,7.617h248.226
	c4.207,0,7.617-3.409,7.617-7.617c0-4.207-3.409-7.617-7.617-7.617H87.958V137.664h335.104V320.92H389.257z"/>
<path d="M236.684,188.481c-2.484,1.323-4.036,3.908-4.036,6.722v57.555c0,2.814,1.552,5.399,4.036,6.722
	c1.123,0.598,2.353,0.895,3.581,0.895c1.487,0,2.969-0.436,4.25-1.295l42.81-28.777c2.105-1.416,3.368-3.786,3.368-6.322
	c0-2.536-1.262-4.906-3.368-6.322l-42.81-28.777C242.179,187.313,239.167,187.159,236.684,188.481z M247.882,209.501l21.541,14.481
	l-21.541,14.481L247.882,209.501L247.882,209.501z"/>
<path d="M182.22,223.981c0,40.682,33.097,73.779,73.78,73.779c40.681,0,73.779-33.097,73.779-73.779S296.681,150.202,256,150.202
	C215.318,150.202,182.22,183.299,182.22,223.981z M314.546,223.981c0,32.282-26.263,58.546-58.546,58.546
	s-58.547-26.264-58.547-58.546s26.264-58.546,58.547-58.546S314.546,191.699,314.546,223.981z"/>
<path d="M305.452,377.016H207.96c-4.206,0-7.617,3.409-7.617,7.617c0,4.207,3.41,7.617,7.617,7.617h97.492
	c4.207,0,7.617-3.409,7.617-7.617C313.068,380.425,309.658,377.016,305.452,377.016z"/>
</svg>